<svg xmlns="http://www.w3.org/2000/svg" viewBox="0 0 1488.18 537.29"><defs><style>.cls-1{fill:#fff;}</style></defs><title>logo_ram</title><g id="Layer_2" data-name="Layer 2"><g id="Layer_1-2" data-name="Layer 1"><path d="M0,537.29H907.06a161.72,161.72,0,0,0,117.11-50.18L1488.18,0H608.71A185.77,185.77,0,0,0,476.58,55.18Z"/><path class="cls-1" d="M744.09,132.3h0Z"/><path class="cls-1" d="M696.43,226.83l-5.21,5A59.6,59.6,0,0,1,696.43,226.83Z"/><path class="cls-1" d="M1110.85,132.3l-72,70H763.31a102.41,102.41,0,0,0-66.79,24.45l-.09.08a59.6,59.6,0,0,0-5.21,5l-.08.08-81,79.83a38.74,38.74,0,0,1-26.85,10.81h-91.4L639.23,175.29a149.38,149.38,0,0,1,103.62-43h368Z"/><path class="cls-1" d="M1018.81,224.13l-47.95,48a58.2,58.2,0,0,1-41.18,17.07H793.51a50.26,50.26,0,0,0-7.69,0c-9.41.62-25.73,3.72-39.15,16.69l-48.81,47.22,0,0-31.3,31.43a84.79,84.79,0,0,1-60,24.94H405.72l54.09-54.13a37.25,37.25,0,0,1,26.34-10.92H577a50.26,50.26,0,0,0,7.69,0c9.41-.62,25.73-3.72,39.14-16.69L668.5,284.5l.13.1L704,249.08a84.74,84.74,0,0,1,60-25Z"/></g></g></svg>