<svg xmlns="http://www.w3.org/2000/svg" viewBox="0 0 705.13 277.13"><defs><style>.cls-1{fill:#ff0200;}</style></defs><title>logo_rod</title><g id="Layer_2" data-name="Layer 2"><g id="Layer_1-2" data-name="Layer 1"><path class="cls-1" d="M705.13,0l-72,70H357.59A102.41,102.41,0,0,0,290.8,94.45l-.09.08a59.6,59.6,0,0,0-5.21,5l-.08.08-81,79.83a38.74,38.74,0,0,1-26.85,10.81H86.13L233.51,43A149.38,149.38,0,0,1,337.13,0h368Z"/><path class="cls-1" d="M613.09,91.83l-48,48A58.2,58.2,0,0,1,524,156.88H387.79a50.26,50.26,0,0,0-7.69,0c-9.41.62-25.73,3.72-39.15,16.69l-48.81,47.22,0,0-31.3,31.43a84.79,84.79,0,0,1-60.05,24.94H0L54.09,223a37.25,37.25,0,0,1,26.34-10.92H171.3a50.26,50.26,0,0,0,7.69,0c9.41-.62,25.73-3.72,39.14-16.69l44.65-43.19.13.1,35.38-35.52a84.74,84.74,0,0,1,60-25Z"/></g></g></svg>